<svg width="528" height="173" viewBox="0 0 528 173" fill="none" xmlns="http://www.w3.org/2000/svg">
<path d="M0 16C0 7.16347 7.16344 0 16 0H512C520.837 0 528 7.16345 528 16V156.979C528 165.815 520.837 172.979 512 172.979H16C7.16343 172.979 0 165.815 0 156.979V16Z" fill="#D3E3FD"/>
<rect x="129" y="46" width="80" height="80" rx="8" fill="#212121"/>
<rect x="146" y="62.8242" width="46" height="46" rx="23" fill="white"/>
<rect x="146" y="62.8242" width="46" height="46" rx="23" stroke="url(#paint0_linear_1269_17414)" stroke-width="2"/>
<circle cx="168.901" cy="85.7232" r="12.4888" fill="white" stroke="#3271EA" stroke-width="2"/>
<path d="M170.445 83.4764H170.798L171.806 82.4224L171.855 81.9747C169.98 80.2431 167.118 80.4302 165.463 82.3918C165.003 82.9363 164.67 83.5848 164.488 84.2865C164.6 84.2384 164.724 84.2304 164.841 84.2646L166.856 83.9167C166.856 83.9167 166.958 83.7391 167.012 83.75C167.908 82.7201 169.416 82.6 170.452 83.4764H170.445Z" fill="#DB372D"/>
<path d="M173.239 84.2878C173.007 83.3955 172.532 82.5933 171.871 81.9805L170.457 83.4595C171.054 83.9698 171.395 84.7391 171.38 85.5456V85.8084C172.075 85.8084 172.639 86.398 172.639 87.1251C172.639 87.8522 172.075 88.4418 171.38 88.4418H168.863L168.612 88.7082V90.2877L168.863 90.5505H171.38C173.188 90.565 174.665 89.0438 174.679 87.1528C174.687 86.0042 174.146 84.9298 173.239 84.2878Z" fill="#3271EA"/>
<path d="M166.343 90.5312H168.86V88.4233H166.343C166.163 88.4233 165.987 88.3826 165.823 88.3047L165.47 88.4197L164.455 89.4736L164.367 89.8434C164.935 90.2932 165.63 90.5349 166.343 90.5312Z" fill="#44C265"/>
<path d="M166.343 83.6953C164.534 83.7063 163.078 85.2486 163.088 87.1404C163.095 88.1965 163.566 89.1908 164.367 89.8342L165.826 88.3072C165.193 88.008 164.911 87.2277 165.197 86.5654C165.483 85.903 166.229 85.6082 166.862 85.9074C167.141 86.0391 167.365 86.2735 167.491 86.5654L168.951 85.0383C168.33 84.1881 167.365 83.691 166.343 83.6953Z" fill="#FCBD00"/>
<rect x="318" y="46" width="80" height="80" rx="8" fill="#212121"/>
<g clip-path="url(#clip0_1269_17414)">
<path d="M371.443 86.9401C371.443 87.6739 371.186 88.2623 370.667 88.7053C370.143 89.1415 369.507 89.3614 368.754 89.3614C368.085 89.3614 367.498 89.1585 366.987 88.756C366.478 88.3502 366.126 87.799 365.93 87.099L366.921 86.6797C366.99 86.93 367.081 87.1531 367.202 87.356C367.322 87.5589 367.463 87.7314 367.622 87.8768C367.782 88.0222 367.961 88.1338 368.157 88.215C368.353 88.2961 368.558 88.3367 368.776 88.3367C369.249 88.3367 369.634 88.2116 369.934 87.958C370.234 87.7044 370.384 87.3696 370.384 86.9502C370.384 86.6019 370.26 86.301 370.012 86.0507C369.781 85.8106 369.344 85.5773 368.708 85.3507C368.062 85.1106 367.661 84.9449 367.505 84.8604C366.651 84.4106 366.224 83.7444 366.224 82.8652C366.224 82.2498 366.458 81.7256 366.931 81.2894C367.41 80.8531 368 80.6367 368.698 80.6367C369.314 80.6367 369.846 80.799 370.296 81.1271C370.746 81.4449 371.046 81.8473 371.196 82.3275L370.227 82.7469C370.136 82.4358 369.96 82.1787 369.693 81.9725C369.425 81.7662 369.102 81.6647 368.721 81.6647C368.317 81.6647 367.974 81.7797 367.697 82.013C367.42 82.2295 367.28 82.5135 367.28 82.8618C367.28 83.1493 367.388 83.3961 367.606 83.6058C367.847 83.8155 368.366 84.0623 369.171 84.3498C369.989 84.6372 370.57 84.9923 370.922 85.4082C371.271 85.8242 371.443 86.3382 371.443 86.9469V86.9401Z" fill="#F7F7F7"/>
<path d="M377.191 89.173H375.943L374.221 86.4778L373.377 87.3401V89.173H372.343V80.8203H373.377V85.9638L375.76 83.4546H377.087V83.502L374.938 85.7169L377.188 89.1222V89.1696L377.191 89.173Z" fill="#F7F7F7"/>
<path d="M379.027 81.4874C379.027 81.6971 378.955 81.8763 378.812 82.0251C378.668 82.1739 378.499 82.2483 378.293 82.2483C378.088 82.2483 377.918 82.1739 377.775 82.0251C377.631 81.8763 377.563 81.6971 377.563 81.4874C377.563 81.2778 377.635 81.0985 377.775 80.9498C377.918 80.801 378.091 80.7266 378.293 80.7266C378.495 80.7266 378.668 80.801 378.812 80.9498C378.955 81.0985 379.027 81.2778 379.027 81.4874ZM378.812 83.4589V89.1773H377.778V83.4589H378.812Z" fill="#F7F7F7"/>
<path d="M381.045 80.8203V89.173H380.011V80.8203H381.045Z" fill="#F7F7F7"/>
<path d="M383.223 80.8203V89.173H382.189V80.8203H383.223Z" fill="#F7F7F7"/>
<path d="M388.58 87.5879C388.58 88.085 388.371 88.5043 387.95 88.8492C387.53 89.1942 387.002 89.3633 386.366 89.3633C385.812 89.3633 385.323 89.2145 384.902 88.9135C384.481 88.6159 384.182 88.2203 384.002 87.7299L384.925 87.3207C385.059 87.6623 385.257 87.9294 385.515 88.1188C385.773 88.3082 386.056 88.4029 386.366 88.4029C386.695 88.4029 386.972 88.3285 387.194 88.1797C387.416 88.0309 387.527 87.8584 387.527 87.6555C387.527 87.2903 387.256 87.0232 386.718 86.8507L385.773 86.6072C384.7 86.3265 384.165 85.7889 384.165 84.9976C384.165 84.4768 384.371 84.0575 384.778 83.743C385.186 83.4285 385.711 83.2695 386.346 83.2695C386.835 83.2695 387.276 83.3913 387.667 83.6314C388.058 83.8715 388.335 84.1961 388.495 84.5985L387.572 84.9942C387.468 84.7541 387.295 84.5647 387.06 84.4294C386.826 84.2942 386.558 84.2265 386.268 84.2265C385.998 84.2265 385.756 84.2976 385.541 84.4362C385.326 84.5748 385.222 84.7473 385.222 84.9502C385.222 85.2782 385.518 85.5116 386.112 85.6502L386.943 85.8734C388.038 86.1541 388.586 86.7256 388.586 87.5879H388.58Z" fill="#F7F7F7"/>
<path d="M335.479 84.1174C335.528 84.4286 335.551 84.7295 335.551 85.0136C335.551 85.9807 335.313 87.1778 334.491 88.03C333.692 88.8923 332.668 89.3556 331.315 89.3556C328.805 89.359 326.696 87.2387 326.696 84.6348C326.696 82.031 328.805 79.9141 331.315 79.9141C332.704 79.9141 333.692 80.4788 334.436 81.216L333.559 82.1257C333.027 81.6083 332.303 81.2059 331.315 81.2059C329.483 81.2059 328.052 82.7377 328.052 84.6382C328.052 86.5387 329.483 88.0706 331.315 88.0706C332.502 88.0706 333.18 87.5769 333.614 87.1271C333.969 86.7585 334.211 86.2276 334.302 85.4126H331.325V84.1242H335.482L335.479 84.1174Z" fill="#F7F7F7"/>
<path d="M341.967 86.3174C341.967 88.0691 340.65 89.3575 339.036 89.3575C337.422 89.3575 336.105 88.0691 336.105 86.3174C336.105 84.5657 337.422 83.2773 339.036 83.2773C340.65 83.2773 341.967 84.5556 341.967 86.3174ZM340.682 86.3174C340.682 85.2218 339.919 84.4744 339.036 84.4744C338.152 84.4744 337.389 85.2218 337.389 86.3174C337.389 87.4131 338.152 88.1604 339.036 88.1604C339.919 88.1604 340.682 87.3996 340.682 86.3174Z" fill="#F7F7F7"/>
<path d="M348.445 86.3174C348.445 88.0691 347.128 89.3575 345.514 89.3575C343.9 89.3575 342.583 88.0691 342.583 86.3174C342.583 84.5657 343.9 83.2773 345.514 83.2773C347.128 83.2773 348.445 84.5556 348.445 86.3174ZM347.16 86.3174C347.16 85.2218 346.398 84.4744 345.514 84.4744C344.63 84.4744 343.868 85.2218 343.868 86.3174C343.868 87.4131 344.63 88.1604 345.514 88.1604C346.398 88.1604 347.16 87.3996 347.16 86.3174Z" fill="#F7F7F7"/>
<path d="M354.656 83.4633V88.9213C354.656 91.1667 353.378 92.0899 351.868 92.0899C350.447 92.0899 349.593 91.0991 349.27 90.2943L350.391 89.8107C350.59 90.3044 351.079 90.8928 351.868 90.8928C352.833 90.8928 353.433 90.2706 353.433 89.1073V88.6711H353.388C353.098 89.0397 352.543 89.3609 351.846 89.3609C350.378 89.3609 349.061 88.0353 349.061 86.331C349.061 84.6266 350.378 83.2773 351.846 83.2773C352.547 83.2773 353.101 83.5986 353.388 83.9571H353.433V83.4633H354.656ZM353.521 86.331C353.521 85.259 352.833 84.4778 351.956 84.4778C351.079 84.4778 350.349 85.2624 350.349 86.331C350.349 87.3996 351.066 88.1638 351.956 88.1638C352.847 88.1638 353.521 87.3928 353.521 86.331Z" fill="#F7F7F7"/>
<path d="M356.928 80.2344V89.1721H355.641V80.2344H356.928Z" fill="#F7F7F7"/>
<path d="M361.933 87.3184L362.931 88.0083C362.608 88.502 361.832 89.3575 360.489 89.3575C358.823 89.3575 357.581 88.0218 357.581 86.3174C357.581 84.5083 358.836 83.2773 360.345 83.2773C361.855 83.2773 362.611 84.5319 362.856 85.2116L362.989 85.5566L359.071 87.2372C359.37 87.8493 359.837 88.1571 360.492 88.1571C361.147 88.1571 361.604 87.8223 361.936 87.315L361.933 87.3184ZM358.859 86.2228L361.48 85.0933C361.336 84.7145 360.903 84.4474 360.391 84.4474C359.736 84.4474 358.826 85.0459 358.859 86.2228Z" fill="#F7F7F7"/>
</g>
<path d="M225 87L302 87" stroke="#0B57D0" stroke-linecap="square" stroke-dasharray="4 4"/>
<defs>
<linearGradient id="paint0_linear_1269_17414" x1="147" y1="85.8242" x2="191" y2="85.8242" gradientUnits="userSpaceOnUse">
<stop stop-color="#EFF2EF"/>
<stop offset="1" stop-color="#E9EEF6"/>
</linearGradient>
<clipPath id="clip0_1269_17414">
<rect width="61.8841" height="12.1739" fill="white" transform="translate(326.696 79.9141)"/>
</clipPath>
</defs>
</svg>
